<mxfile host="app.diagrams.net" agent="Mozilla/5.0 (Macintosh; Intel Mac OS X 10_15_7) AppleWebKit/537.36 (KHTML, like Gecko) Chrome/138.0.0.0 Safari/537.36" version="28.1.0">
  <diagram name="Page-1" id="nGw3dob7N7OY36UTIDTg">
    <mxGraphModel dx="705" dy="458" grid="1" gridSize="10" guides="1" tooltips="1" connect="1" arrows="1" fold="1" page="1" pageScale="1" pageWidth="827" pageHeight="1169" math="0" shadow="0">
      <root>
        <mxCell id="0" />
        <mxCell id="1" parent="0" />
        <mxCell id="H1AeYL00ZjbXhmxLTQsf-3" value="" style="edgeStyle=orthogonalEdgeStyle;rounded=0;orthogonalLoop=1;jettySize=auto;html=1;" edge="1" parent="1" source="H1AeYL00ZjbXhmxLTQsf-1" target="H1AeYL00ZjbXhmxLTQsf-2">
          <mxGeometry relative="1" as="geometry" />
        </mxCell>
        <mxCell id="H1AeYL00ZjbXhmxLTQsf-1" value="Read" style="ellipse;whiteSpace=wrap;html=1;aspect=fixed;" vertex="1" parent="1">
          <mxGeometry x="90" y="160" width="80" height="80" as="geometry" />
        </mxCell>
        <mxCell id="H1AeYL00ZjbXhmxLTQsf-5" value="" style="edgeStyle=orthogonalEdgeStyle;rounded=0;orthogonalLoop=1;jettySize=auto;html=1;" edge="1" parent="1" source="H1AeYL00ZjbXhmxLTQsf-2" target="H1AeYL00ZjbXhmxLTQsf-4">
          <mxGeometry relative="1" as="geometry" />
        </mxCell>
        <mxCell id="H1AeYL00ZjbXhmxLTQsf-2" value="Understand" style="whiteSpace=wrap;html=1;" vertex="1" parent="1">
          <mxGeometry x="200" y="170" width="120" height="60" as="geometry" />
        </mxCell>
        <mxCell id="H1AeYL00ZjbXhmxLTQsf-7" value="" style="edgeStyle=orthogonalEdgeStyle;rounded=0;orthogonalLoop=1;jettySize=auto;html=1;" edge="1" parent="1" source="H1AeYL00ZjbXhmxLTQsf-4" target="H1AeYL00ZjbXhmxLTQsf-6">
          <mxGeometry relative="1" as="geometry" />
        </mxCell>
        <mxCell id="H1AeYL00ZjbXhmxLTQsf-4" value="Form into idea" style="whiteSpace=wrap;html=1;" vertex="1" parent="1">
          <mxGeometry x="340" y="170" width="120" height="60" as="geometry" />
        </mxCell>
        <mxCell id="H1AeYL00ZjbXhmxLTQsf-9" value="" style="edgeStyle=orthogonalEdgeStyle;rounded=0;orthogonalLoop=1;jettySize=auto;html=1;" edge="1" parent="1" source="H1AeYL00ZjbXhmxLTQsf-6" target="H1AeYL00ZjbXhmxLTQsf-8">
          <mxGeometry relative="1" as="geometry" />
        </mxCell>
        <mxCell id="H1AeYL00ZjbXhmxLTQsf-6" value="Translate into text" style="whiteSpace=wrap;html=1;" vertex="1" parent="1">
          <mxGeometry x="490" y="170" width="120" height="60" as="geometry" />
        </mxCell>
        <mxCell id="H1AeYL00ZjbXhmxLTQsf-8" value="Write it down" style="ellipse;whiteSpace=wrap;html=1;" vertex="1" parent="1">
          <mxGeometry x="640" y="160" width="80" height="80" as="geometry" />
        </mxCell>
      </root>
    </mxGraphModel>
  </diagram>
</mxfile>
